<svg className="w-6 h-6 mr-2" viewBox="0 0 24 24" fill="none" xmlns="http://www.w3.org/2000/svg">
    <path
        d="M12 0C5.373 0 0 5.373 0 12c0 5.303 3.438 9.8 8.206 11.385.6.11.793-.257.793-.573 0-.283-.01-1.033-.015-2.027-3.338.724-4.042-1.615-4.042-1.615-.546-1.384-1.334-1.753-1.334-1.753-1.089-.744.082-.729.082-.729 1.204.085 1.838 1.236 1.838 1.236 1.07 1.835 2.809 1.304 3.494.999.108-.772.417-1.303.759-1.604-2.658-.3-5.46-1.317-5.46-5.86 0-1.294.462-2.35 1.225-3.177-.123-.3-.531-1.504.116-3.134 0 0 .993-.318 3.253 1.215a11.342 11.342 0 0 1 3.008-.407c1.019.005 2.045.137 3.008.407 2.259-1.533 3.252-1.215 3.252-1.215.648 1.63.24 2.834.117 3.134.766.827 1.224 1.883 1.224 3.177 0 4.557-2.805 5.556-5.47 5.851.43.367.813 1.09.813 2.204 0 1.592-.014 2.875-.014 3.267 0 .318.19.688.799.572C20.566 21.795 24 17.3 24 12c0-6.627-5.373-12-12-12z"
        fill="currentColor" />
</svg>