<svg width="505.9249267578125px" height="183.2px" xmlns="http://www.w3.org/2000/svg" viewBox="-2.96246337890625 -16.599999999999994 505.9249267578125 183.2" style="background: none;" preserveAspectRatio="xMidYMid"><defs><filter id="editing-hole" x="-100%" y="-100%" width="300%" height="300%"><feFlood flood-color="#000000" result="black"></feFlood><feMorphology operator="dilate" radius="2" in="SourceGraphic" result="erode"></feMorphology><feGaussianBlur in="erode" stdDeviation="4" result="blur"></feGaussianBlur><feOffset in="blur" dx="2" dy="2" result="offset"></feOffset><feComposite operator="atop" in="offset" in2="black" result="merge"></feComposite><feComposite operator="in" in="merge" in2="SourceGraphic" result="inner-shadow"></feComposite></filter></defs><g filter="url(#editing-hole)"><g transform="translate(69.6999740600586, 110.4000015258789)"><path d="M59.20-51.30L59.20-51.30Q66.70-51.30 71.05-46.80L71.05-46.80L71.05-46.80Q75.40-42.30 75.40-34.50L75.40-34.50L75.40-1.30L75.40-1.30Q75.40 0 74.10 0L74.10 0L69.70 0L69.70 0Q68.40 0 68.40-1.30L68.40-1.30L68.40-33.10L68.40-33.10Q68.40-38.60 65.25-41.85L65.25-41.85L65.25-41.85Q62.10-45.10 57-45.10L57-45.10L57-45.10Q51.70-45.10 48.45-41.90L48.45-41.90L48.45-41.90Q45.20-38.70 45.20-33.30L45.20-33.30L45.20-1.30L45.20-1.30Q45.20 0 43.90 0L43.90 0L39.40 0L39.40 0Q38.10 0 38.10-1.30L38.10-1.30L38.10-33.10L38.10-33.10Q38.10-38.60 35-41.85L35-41.85L35-41.85Q31.90-45.10 26.70-45.10L26.70-45.10L26.70-45.10Q21.40-45.10 18.25-41.90L18.25-41.90L18.25-41.90Q15.10-38.70 15.10-33.30L15.10-33.30L15.10-1.30L15.10-1.30Q15.10 0 13.80 0L13.80 0L9.30 0L9.30 0Q8 0 8-1.30L8-1.30L8-49.30L8-49.30Q8-50.60 9.30-50.60L9.30-50.60L13.80-50.60L13.80-50.60Q15.10-50.60 15.10-49.30L15.10-49.30L15.10-45.80L15.10-45.80Q15.10-45.50 15.30-45.40L15.30-45.40L15.30-45.40Q15.50-45.30 15.70-45.60L15.70-45.60L15.70-45.60Q17.90-48.50 21.30-49.90L21.30-49.90L21.30-49.90Q24.70-51.30 28.90-51.30L28.90-51.30L28.90-51.30Q34-51.30 37.70-49.20L37.70-49.20L37.70-49.20Q41.40-47.10 43.30-43.30L43.30-43.30L43.30-43.30Q43.60-42.70 43.90-43.20L43.90-43.20L43.90-43.20Q46.10-47.30 50.10-49.30L50.10-49.30L50.10-49.30Q54.10-51.30 59.20-51.30L59.20-51.30ZM110.40-5.30L110.40-5.30Q114.90-5.40 118.15-7.35L118.15-7.35L118.15-7.35Q121.40-9.30 123.20-12.80L123.20-12.80L123.20-12.80Q123.40-13.30 123.90-13.50L123.90-13.50L123.90-13.50Q124.40-13.70 124.90-13.40L124.90-13.40L127.80-11.80L127.80-11.80Q129-11.10 128.40-10.10L128.40-10.10L128.40-10.10Q126-5.10 121.20-2.15L121.20-2.15L121.20-2.15Q116.40 0.80 109.80 0.80L109.80 0.80L109.80 0.80Q102.80 0.80 98-2.50L98-2.50L98-2.50Q93.20-5.80 91.10-11.70L91.10-11.70L91.10-11.70Q89.20-16.70 89.20-25.50L89.20-25.50L89.20-25.50Q89.20-29.80 89.35-32.35L89.35-32.35L89.35-32.35Q89.50-34.90 90.10-37.10L90.10-37.10L90.10-37.10Q91.80-43.60 96.95-47.50L96.95-47.50L96.95-47.50Q102.10-51.40 109.40-51.40L109.40-51.40L109.40-51.40Q118.10-51.40 123.05-46.90L123.05-46.90L123.05-46.90Q128-42.40 129.40-34.20L129.40-34.20L129.40-34.20Q130-31 130-24.20L130-24.20L130-24.20Q130-22.90 128.70-22.90L128.70-22.90L96.70-22.90L96.70-22.90Q96.20-22.90 96.20-22.40L96.20-22.40L96.20-22.40Q96.20-17.40 96.80-15.10L96.80-15.10L96.80-15.10Q97.90-10.60 101.45-7.95L101.45-7.95L101.45-7.95Q105-5.30 110.40-5.30L110.40-5.30ZM109.40-45.20L109.40-45.20Q104.40-45.20 101.20-42.65L101.20-42.65L101.20-42.65Q98-40.10 97-35.80L97-35.80L97-35.80Q96.40-33.80 96.20-29L96.20-29L96.20-29Q96.20-28.50 96.70-28.50L96.70-28.50L122.40-28.50L122.40-28.50Q122.90-28.50 122.90-29L122.90-29L122.90-29Q122.70-33.40 122.30-35.40L122.30-35.40L122.30-35.40Q121.20-39.90 117.85-42.55L117.85-42.55L117.85-42.55Q114.50-45.20 109.40-45.20L109.40-45.20ZM195.30-51.30L195.30-51.30Q202.80-51.30 207.15-46.80L207.15-46.80L207.15-46.80Q211.50-42.30 211.50-34.50L211.50-34.50L211.50-1.30L211.50-1.30Q211.50 0 210.20 0L210.20 0L205.80 0L205.80 0Q204.50 0 204.50-1.30L204.50-1.30L204.50-33.10L204.50-33.10Q204.50-38.60 201.35-41.85L201.35-41.85L201.35-41.85Q198.20-45.10 193.10-45.10L193.10-45.10L193.10-45.10Q187.80-45.10 184.55-41.90L184.55-41.90L184.55-41.90Q181.30-38.70 181.30-33.30L181.30-33.30L181.30-1.30L181.30-1.30Q181.30 0 180.00 0L180.00 0L175.50 0L175.50 0Q174.20 0 174.20-1.30L174.20-1.30L174.20-33.10L174.20-33.10Q174.20-38.60 171.10-41.85L171.10-41.85L171.10-41.85Q168.00-45.10 162.80-45.10L162.80-45.10L162.80-45.10Q157.50-45.10 154.35-41.90L154.35-41.90L154.35-41.90Q151.20-38.70 151.20-33.30L151.20-33.30L151.20-1.30L151.20-1.30Q151.20 0 149.90 0L149.90 0L145.40 0L145.40 0Q144.10 0 144.10-1.30L144.10-1.30L144.10-49.30L144.10-49.30Q144.10-50.60 145.40-50.60L145.40-50.60L149.90-50.60L149.90-50.60Q151.20-50.60 151.20-49.30L151.20-49.30L151.20-45.80L151.20-45.80Q151.20-45.50 151.40-45.40L151.40-45.40L151.40-45.40Q151.60-45.30 151.80-45.60L151.80-45.60L151.80-45.60Q154.00-48.50 157.40-49.90L157.40-49.90L157.40-49.90Q160.80-51.30 165.00-51.30L165.00-51.30L165.00-51.30Q170.10-51.30 173.80-49.20L173.80-49.20L173.80-49.20Q177.50-47.10 179.40-43.30L179.40-43.30L179.40-43.30Q179.70-42.70 180.00-43.20L180.00-43.20L180.00-43.20Q182.20-47.30 186.20-49.30L186.20-49.30L186.20-49.30Q190.20-51.30 195.30-51.30L195.30-51.30ZM265.70-37.70L265.70-37.70Q266.90-33.60 266.90-25.30L266.90-25.30L266.90-25.30Q266.90-17.10 265.50-12.60L265.50-12.60L265.50-12.60Q263.70-6.40 258.95-2.80L258.95-2.80L258.95-2.80Q254.20 0.80 247.20 0.80L247.20 0.80L247.20 0.80Q243.20 0.80 239.95-0.80L239.95-0.80L239.95-0.80Q236.70-2.40 234.50-5.30L234.50-5.30L234.50-5.30Q234.30-5.50 234.10-5.45L234.10-5.45L234.10-5.45Q233.90-5.40 233.90-5.10L233.90-5.10L233.90-1.30L233.90-1.30Q233.90 0 232.60 0L232.60 0L228.10 0L228.10 0Q226.80 0 226.80-1.30L226.80-1.30L226.80-68.70L226.80-68.70Q226.80-70 228.10-70L228.10-70L232.60-70L232.60-70Q233.90-70 233.90-68.70L233.90-68.70L233.90-45.60L233.90-45.60Q233.90-45.30 234.10-45.20L234.10-45.20L234.10-45.20Q234.30-45.10 234.50-45.40L234.50-45.40L234.50-45.40Q236.70-48.30 240-49.85L240-49.85L240-49.85Q243.30-51.40 247.20-51.40L247.20-51.40L247.20-51.40Q254.30-51.40 259.10-47.75L259.10-47.75L259.10-47.75Q263.90-44.10 265.70-37.70L265.70-37.70ZM258-13.20L258-13.20Q259-15.30 259.40-17.95L259.40-17.95L259.40-17.95Q259.80-20.60 259.80-25.30L259.80-25.30L259.80-25.30Q259.80-30.20 259.25-32.95L259.25-32.95L259.25-32.95Q258.70-35.70 257.50-37.90L257.50-37.90L257.50-37.90Q256.20-41.20 253.30-43.20L253.30-43.20L253.30-43.20Q250.40-45.20 246.40-45.20L246.40-45.20L246.40-45.20Q242.60-45.20 239.85-43.15L239.85-43.15L239.85-43.15Q237.10-41.10 235.90-37.70L235.90-37.70L235.90-37.70Q234.90-35.60 234.50-32.85L234.50-32.85L234.50-32.85Q234.10-30.10 234.10-25.30L234.10-25.30L234.10-25.30Q234.10-20.50 234.50-17.80L234.50-17.80L234.50-17.80Q234.90-15.10 235.80-13.10L235.80-13.10L235.80-13.10Q237.10-9.60 239.80-7.50L239.80-7.50L239.80-7.50Q242.50-5.40 246.50-5.40L246.50-5.40L246.50-5.40Q250.70-5.40 253.75-7.50L253.75-7.50L253.75-7.50Q256.80-9.60 258-13.20L258-13.20ZM301.40-51.10L301.40-51.10Q304.70-51.10 306.90-49.90L306.90-49.90L306.90-49.90Q307.90-49.50 307.60-48.30L307.60-48.30L306.60-43.90L306.60-43.90Q306.30-42.70 305-43.10L305-43.10L305-43.10Q303.10-43.70 300.10-43.60L300.10-43.60L300.10-43.60Q294.90-43.40 291.50-39.75L291.50-39.75L291.50-39.75Q288.10-36.10 288.10-30.50L288.10-30.50L288.10-1.30L288.10-1.30Q288.10 0 286.80 0L286.80 0L282.30 0L282.30 0Q281 0 281-1.30L281-1.30L281-49.30L281-49.30Q281-50.60 282.30-50.60L282.30-50.60L286.80-50.60L286.80-50.60Q288.10-50.60 288.10-49.30L288.10-49.30L288.10-43.70L288.10-43.70Q288.10-43.30 288.25-43.25L288.25-43.25L288.25-43.25Q288.40-43.20 288.60-43.50L288.60-43.50L288.60-43.50Q290.70-47.10 293.95-49.10L293.95-49.10L293.95-49.10Q297.20-51.10 301.40-51.10L301.40-51.10ZM334 0.50L334 0.50Q328.40 0.50 324.05-1.30L324.05-1.30L324.05-1.30Q319.70-3.10 317.35-6.10L317.35-6.10L317.35-6.10Q315-9.10 315-12.80L315-12.80L315-13.70L315-13.70Q315-15 316.30-15L316.30-15L320.60-15L320.60-15Q321.20-15 321.55-14.75L321.55-14.75L321.55-14.75Q321.90-14.50 321.90-14.10L321.90-14.10L321.90-13.20L321.90-13.20Q321.90-9.90 325.30-7.45L325.30-7.45L325.30-7.45Q328.70-5 333.90-5L333.90-5L333.90-5Q339.10-5 342.30-7.35L342.30-7.35L342.30-7.35Q345.50-9.70 345.50-13.30L345.50-13.30L345.50-13.30Q345.50-15.80 343.90-17.40L343.90-17.40L343.90-17.40Q342.30-19 340-19.90L340-19.90L340-19.90Q337.70-20.80 333.10-22.20L333.10-22.20L333.10-22.20Q327.50-23.80 323.90-25.40L323.90-25.40L323.90-25.40Q320.30-27 317.80-29.85L317.80-29.85L317.80-29.85Q315.30-32.70 315.30-37.10L315.30-37.10L315.30-37.10Q315.30-43.50 320.35-47.30L320.35-47.30L320.35-47.30Q325.40-51.10 333.60-51.10L333.60-51.10L333.60-51.10Q339.10-51.10 343.35-49.30L343.35-49.30L343.35-49.30Q347.60-47.50 349.90-44.35L349.90-44.35L349.90-44.35Q352.20-41.20 352.20-37.30L352.20-37.30L352.20-37.30Q352.20-36 350.90-36L350.90-36L346.80-36L346.80-36Q345.50-36 345.50-36.70L345.50-36.70L345.50-37.30L345.50-37.30Q345.50-40.70 342.25-43L342.25-43L342.25-43Q339-45.30 333.50-45.30L333.50-45.30L333.50-45.30Q328.40-45.30 325.30-43.25L325.30-43.25L325.30-43.25Q322.20-41.20 322.20-37.60L322.20-37.60L322.20-37.60Q322.20-34.20 325.15-32.40L325.15-32.40L325.15-32.40Q328.10-30.60 334.40-28.80L334.40-28.80L334.40-28.80Q340.20-27.20 343.80-25.70L343.80-25.70L343.80-25.70Q347.40-24.20 350-21.30L350-21.30L350-21.30Q352.60-18.40 352.60-13.80L352.60-13.80L352.60-13.80Q352.60-7.30 347.55-3.40L347.55-3.40L347.55-3.40Q342.50 0.50 334 0.50L334 0.50Z" fill="#989898"></path></g></g><style>text {
  font-size: 64px;
  font-family: Arial Black;
  dominant-baseline: central;
  text-anchor: middle;
}</style></svg>